<?xml version="1.0" encoding="utf-8"?>
<!-- Generator: Adobe Illustrator 16.0.4, SVG Export Plug-In . SVG Version: 6.00 Build 0)  -->
<!DOCTYPE svg PUBLIC "-//W3C//DTD SVG 1.1//EN" "http://www.w3.org/Graphics/SVG/1.1/DTD/svg11.dtd">
<svg version="1.1" id="Layer_1" xmlns="http://www.w3.org/2000/svg" xmlns:xlink="http://www.w3.org/1999/xlink" x="0px" y="0px"
	 width="32px" height="32px" viewBox="0 0 32 32" enable-background="new 0 0 32 32" xml:space="preserve">
<g opacity="0.96">
	<linearGradient id="SVGID_1_" gradientUnits="userSpaceOnUse" x1="11.8989" y1="30.7939" x2="20.5376" y2="-0.3726">
		<stop  offset="0" style="stop-color:#FFB442"/>
		<stop  offset="0.3507" style="stop-color:#EF4750"/>
		<stop  offset="0.7209" style="stop-color:#AF3190"/>
		<stop  offset="1" style="stop-color:#853DB4"/>
	</linearGradient>
	<path fill="url(#SVGID_1_)" d="M16,2.883c4.271,0,4.777,0.016,6.466,0.093c1.562,0.072,2.406,0.332,2.972,0.551
		c0.748,0.29,1.28,0.637,1.84,1.197c0.561,0.559,0.908,1.092,1.197,1.838c0.219,0.564,0.479,1.412,0.549,2.972
		c0.078,1.688,0.095,2.193,0.095,6.467c0,4.272-0.017,4.776-0.095,6.464c-0.069,1.561-0.33,2.406-0.549,2.973
		c-0.291,0.746-0.639,1.279-1.197,1.84c-0.557,0.56-1.092,0.906-1.84,1.195c-0.564,0.219-1.41,0.479-2.972,0.551
		c-1.688,0.078-2.192,0.094-6.466,0.094c-4.272,0-4.779-0.016-6.465-0.094c-1.56-0.07-2.408-0.332-2.972-0.551
		c-0.748-0.291-1.28-0.638-1.84-1.195c-0.56-0.559-0.907-1.094-1.196-1.84c-0.219-0.565-0.48-1.412-0.551-2.973
		c-0.078-1.688-0.093-2.191-0.093-6.464c0-4.275,0.017-4.779,0.093-6.467c0.071-1.56,0.332-2.408,0.551-2.972
		c0.29-0.747,0.637-1.28,1.196-1.838c0.56-0.562,1.092-0.908,1.84-1.197c0.566-0.22,1.412-0.48,2.972-0.552
		C11.221,2.898,11.728,2.883,16,2.883 M16,0c-4.345,0-4.891,0.018-6.596,0.096C7.7,0.173,6.537,0.444,5.52,0.838
		c-1.052,0.41-1.944,0.958-2.834,1.847C1.796,3.575,1.25,4.467,0.84,5.519c-0.396,1.017-0.666,2.18-0.744,3.883
		C0.019,11.109,0,11.654,0,16c0,4.346,0.019,4.891,0.096,6.598c0.079,1.702,0.348,2.866,0.744,3.885
		c0.41,1.053,0.957,1.942,1.846,2.834c0.891,0.888,1.783,1.435,2.834,1.844c1.019,0.396,2.181,0.666,3.884,0.744
		C11.109,31.98,11.655,32,16,32c4.346,0,4.891-0.02,6.598-0.098c1.702-0.077,2.863-0.348,3.883-0.743
		c1.052-0.409,1.944-0.956,2.836-1.845c0.888-0.891,1.435-1.78,1.845-2.834c0.396-1.018,0.665-2.182,0.743-3.885
		C31.98,20.891,32,20.348,32,16c0-4.346-0.02-4.891-0.098-6.599c-0.077-1.702-0.348-2.865-0.742-3.883
		c-0.41-1.052-0.957-1.944-1.846-2.833c-0.891-0.889-1.783-1.438-2.836-1.846c-1.019-0.395-2.18-0.667-3.883-0.744
		C20.891,0.018,20.346,0,16,0"/>
	<linearGradient id="SVGID_2_" gradientUnits="userSpaceOnUse" x1="11.8989" y1="30.7939" x2="20.5376" y2="-0.3726">
		<stop  offset="0" style="stop-color:#FFB442"/>
		<stop  offset="0.3507" style="stop-color:#EF4750"/>
		<stop  offset="0.7209" style="stop-color:#AF3190"/>
		<stop  offset="1" style="stop-color:#853DB4"/>
	</linearGradient>
	<path fill="url(#SVGID_2_)" d="M16,7.783c-4.537,0-8.216,3.68-8.216,8.219c0,4.535,3.679,8.216,8.216,8.216
		c4.536,0,8.216-3.682,8.216-8.216C24.216,11.463,20.536,7.783,16,7.783 M16,21.333c-2.945,0-5.333-2.388-5.333-5.333
		c0-2.947,2.388-5.334,5.333-5.334c2.945,0,5.333,2.387,5.333,5.334C21.333,18.945,18.945,21.333,16,21.333"/>
	<linearGradient id="SVGID_3_" gradientUnits="userSpaceOnUse" x1="17.6328" y1="32.3828" x2="26.2715" y2="1.2163">
		<stop  offset="0" style="stop-color:#FFB442"/>
		<stop  offset="0.3507" style="stop-color:#EF4750"/>
		<stop  offset="0.7209" style="stop-color:#AF3190"/>
		<stop  offset="1" style="stop-color:#853DB4"/>
	</linearGradient>
	<path fill="url(#SVGID_3_)" d="M26.461,7.458c0,1.062-0.859,1.92-1.919,1.92c-1.062,0-1.92-0.86-1.92-1.92s0.858-1.919,1.92-1.919
		C25.602,5.539,26.461,6.398,26.461,7.458"/>
</g>
</svg>
